<svg xmlns="http://www.w3.org/2000/svg" xmlns:xlink="http://www.w3.org/1999/xlink" width="500" zoomAndPan="magnify" viewBox="0 0 375 374.999991" height="500" preserveAspectRatio="xMidYMid meet" version="1.0"><defs><g/></defs><path fill="#5ce1e6" d="M 35.320312 55.390625 C 48.269531 30.789062 78.195312 29.347656 103.300781 31.652344 C 131.355469 34.242188 145.8125 26.757812 169.480469 13.019531 C 188.6875 1.871094 206.453125 2.230469 226.8125 12.660156 C 251.414062 25.320312 246.378906 47.980469 266.304688 62.367188 C 284.792969 75.746094 312.703125 69.777344 332.34375 82.148438 C 352.050781 94.59375 357.375 116.101562 356.296875 138.332031 C 354.785156 168.617188 339.175781 196.960938 344.714844 227.675781 C 349.175781 252.421875 375 277.816406 362.125 303.925781 C 338.023438 352.769531 262.78125 311.839844 224.078125 318.960938 C 182.210938 326.730469 118.765625 373.128906 78.480469 331.910156 C 60.640625 313.710938 70.28125 284.71875 69.921875 262.492188 C 69.417969 231.558594 58.84375 222.207031 37.261719 202.066406 C 16.472656 182.714844 0 173.078125 8.199219 143.796875 C 13.09375 126.246094 36.976562 122.363281 41.433594 110.78125 C 46.828125 96.320312 27.910156 69.34375 35.320312 55.390625 Z M 35.320312 55.390625 " fill-opacity="1" fill-rule="nonzero"/><g fill="#000000" fill-opacity="1"><g transform="translate(94.34203, 239.834598)"><g><path d="M 113.515625 -35.375 C 114.148438 -35.914062 115.175781 -36.070312 116.59375 -35.84375 C 118.007812 -35.625 118.644531 -35.179688 118.5 -34.515625 C 109.03125 -26.085938 100.015625 -20.28125 91.453125 -17.09375 C 82.890625 -13.90625 74.941406 -12.519531 67.609375 -12.9375 C 60.273438 -13.351562 53.664062 -14.691406 47.78125 -16.953125 C 41.90625 -19.210938 36.8125 -21.507812 32.5 -23.84375 C 38.59375 -14.039062 42.46875 -3.734375 44.125 7.078125 C 45.78125 17.898438 45.738281 28.382812 44 38.53125 C 42.269531 48.675781 39.421875 57.796875 35.453125 65.890625 C 31.492188 73.984375 26.90625 80.253906 21.6875 84.703125 C 16.46875 89.160156 11.273438 90.984375 6.109375 90.171875 C -0.734375 89.179688 -5.613281 85.726562 -8.53125 79.8125 C -11.445312 73.894531 -12.972656 66.390625 -13.109375 57.296875 C -13.253906 48.203125 -12.410156 38.375 -10.578125 27.8125 C -8.753906 17.257812 -6.445312 6.679688 -3.65625 -3.921875 C -0.875 -14.523438 1.929688 -24.257812 4.765625 -33.125 C 7.597656 -41.988281 10.066406 -49.207031 12.171875 -54.78125 C 14.273438 -60.351562 15.398438 -63.460938 15.546875 -64.109375 C 22.054688 -82.523438 29.066406 -100.09375 36.578125 -116.8125 C 44.085938 -133.53125 51.9375 -148.269531 60.125 -161.03125 C 68.3125 -173.800781 76.632812 -183.472656 85.09375 -190.046875 C 93.550781 -196.628906 101.972656 -198.988281 110.359375 -197.125 C 115.285156 -196.03125 119.097656 -193.195312 121.796875 -188.625 C 124.503906 -184.0625 125.320312 -178.015625 124.25 -170.484375 C 123.175781 -162.953125 119.601562 -154.078125 113.53125 -143.859375 C 107.46875 -133.640625 98.242188 -122.222656 85.859375 -109.609375 C 73.472656 -97.003906 57.210938 -83.441406 37.078125 -68.921875 C 34.972656 -64.898438 32.722656 -60.046875 30.328125 -54.359375 C 27.941406 -48.679688 25.492188 -42.5 22.984375 -35.8125 C 32.046875 -28.445312 41.503906 -23.0625 51.359375 -19.65625 C 61.222656 -16.25 71.378906 -15.71875 81.828125 -18.0625 C 92.273438 -20.40625 102.835938 -26.175781 113.515625 -35.375 Z M 1.109375 32.34375 C -3.648438 50.625 -5.195312 63.960938 -3.53125 72.359375 C -1.863281 80.765625 1.800781 85.421875 7.46875 86.328125 C 10.84375 86.742188 14.457031 85.265625 18.3125 81.890625 C 22.164062 78.515625 25.820312 73.710938 29.28125 67.484375 C 32.738281 61.265625 35.535156 54.117188 37.671875 46.046875 C 39.804688 37.972656 40.878906 29.453125 40.890625 20.484375 C 40.898438 11.515625 39.4375 2.5625 36.5 -6.375 C 33.570312 -15.320312 28.585938 -23.769531 21.546875 -31.71875 C 17.722656 -21.519531 14 -10.785156 10.375 0.484375 C 6.75 11.765625 3.660156 22.382812 1.109375 32.34375 Z M 39.21875 -75.1875 C 57.957031 -89.5 73.0625 -102.671875 84.53125 -114.703125 C 96.007812 -126.742188 104.578125 -137.53125 110.234375 -147.0625 C 115.898438 -156.59375 119.210938 -164.703125 120.171875 -171.390625 C 121.140625 -178.078125 120.488281 -183.3125 118.21875 -187.09375 C 115.957031 -190.875 112.65625 -193.078125 108.3125 -193.703125 C 105.132812 -194.234375 101.335938 -192.3125 96.921875 -187.9375 C 92.503906 -183.570312 87.789062 -177.5 82.78125 -169.71875 C 77.769531 -161.945312 72.660156 -152.941406 67.453125 -142.703125 C 62.242188 -132.472656 57.234375 -121.59375 52.421875 -110.0625 C 47.609375 -98.53125 43.207031 -86.90625 39.21875 -75.1875 Z M 39.21875 -75.1875 "/></g></g></g><g fill="#000000" fill-opacity="1"><g transform="translate(194.772363, 262.154936)"><g><path d="M 57.859375 -90.21875 C 62.296875 -89.226562 65.550781 -86.988281 67.625 -83.5 C 69.707031 -80.019531 70.703125 -76.128906 70.609375 -71.828125 C 70.515625 -67.535156 69.179688 -63.691406 66.609375 -60.296875 C 64.046875 -56.898438 60.359375 -54.867188 55.546875 -54.203125 C 54.890625 -54.347656 54.234375 -54.492188 53.578125 -54.640625 C 52.921875 -54.785156 52.097656 -54.96875 51.109375 -55.1875 C 57.285156 -56.582031 61.535156 -59.003906 63.859375 -62.453125 C 66.179688 -65.910156 67.195312 -69.523438 66.90625 -73.296875 C 66.625 -77.078125 65.5 -80.179688 63.53125 -82.609375 C 61.5625 -85.035156 59.320312 -86.003906 56.8125 -85.515625 C 53.71875 -84.816406 49.984375 -82.019531 45.609375 -77.125 C 41.242188 -72.226562 36.722656 -66.066406 32.046875 -58.640625 C 27.378906 -51.210938 22.988281 -43.296875 18.875 -34.890625 C 14.757812 -26.492188 11.40625 -18.394531 8.8125 -10.59375 C 6.226562 -2.800781 4.722656 3.976562 4.296875 9.75 C 3.867188 15.53125 5.078125 19.429688 7.921875 21.453125 C 9.484375 23.003906 11.882812 23.835938 15.125 23.953125 C 18.375 24.078125 22.171875 23.320312 26.515625 21.6875 C 31.410156 19.84375 37.039062 17.035156 43.40625 13.265625 C 49.769531 9.503906 56.363281 5.273438 63.1875 0.578125 C 70.007812 -4.117188 76.628906 -8.859375 83.046875 -13.640625 C 89.460938 -18.429688 95.234375 -22.847656 100.359375 -26.890625 C 105.484375 -30.929688 109.410156 -34.03125 112.140625 -36.1875 C 112.742188 -36.582031 113.625 -36.648438 114.78125 -36.390625 C 115.9375 -36.128906 116.441406 -35.664062 116.296875 -35 C 111.847656 -31.332031 106.164062 -26.769531 99.25 -21.3125 C 92.34375 -15.863281 84.828125 -10.195312 76.703125 -4.3125 C 68.578125 1.5625 60.5 7.015625 52.46875 12.046875 C 44.445312 17.078125 37.179688 21.035156 30.671875 23.921875 C 26.066406 26.003906 21.769531 27.070312 17.78125 27.125 C 13.800781 27.1875 10.257812 26.441406 7.15625 24.890625 C 2.0625 22.203125 -1.445312 18.007812 -3.375 12.3125 C -5.3125 6.625 -5.957031 0.015625 -5.3125 -7.515625 C -4.675781 -15.054688 -3.019531 -22.890625 -0.34375 -31.015625 C 2.320312 -39.140625 5.78125 -46.957031 10.03125 -54.46875 C 14.289062 -61.988281 19.007812 -68.671875 24.1875 -74.515625 C 29.375 -80.359375 34.84375 -84.753906 40.59375 -87.703125 C 46.34375 -90.648438 52.097656 -91.488281 57.859375 -90.21875 Z M 57.859375 -90.21875 "/></g></g></g></svg>